<?xml version="1.0" encoding="UTF-8"?>
<!-- Generator: Adobe Illustrator 19.1.0, SVG Export Plug-In . SVG Version: 6.00 Build 0)  -->
<svg version="1.1" id="Shape_1_1_" xmlns="http://www.w3.org/2000/svg" xmlns:xlink="http://www.w3.org/1999/xlink" x="0px" y="0px" viewBox="0 0 138 159" style="enable-background:new 0 0 138 159;" xml:space="preserve">
<style type="text/css">
	.st0{fill-rule:evenodd;clip-rule:evenodd;fill:#F47528;}
</style>
<g id="Shape_1">
	<g>
		<path class="st0" d="M137,125.7l-2.6-1.6c0,0-0.1-1-0.2-1.2c-0.1-0.3-0.6-0.7-0.7-1c-0.1-0.2-0.3-0.8-0.4-1    c-0.2-0.4-0.6-1-0.8-1.3c-0.4-0.6-1.5-1.3-1.8-1.9c-0.1-0.3-0.3-1.1-0.3-1.1l-0.1-1L108,96L55.7,50.8l-0.1-11.5L54.8,0.2L31.4,0.4    L3.5,0H2.9L2.8,2.4c0,0-0.5,0.9-0.4,1.2c0.1,0.3,0.9,0.7,1,1c0.2,0.3,0.1,0.8,0.2,1c0.1,0.6,0.7,2,0.7,2S4.7,9.4,4.5,10    c0,0.3-0.1,0.7-0.4,1.1c-0.4,1.6-1,4.1-1,4.1c0,0.3,0.5,0.7,0.5,1c0.1,0.3,0,1-0.1,1.2c-0.1,0.3-0.4,0.9-0.5,1.1    c-0.1,0.3-0.1,1-0.2,1.2c-0.2,0.5-0.3,1-0.5,1.1c-0.2,0.2-0.8,0.5-1,0.8c-0.1,0.2-0.2,0.9-0.3,1.1c-0.1,0.3-0.6,1-0.7,1.3    C0.2,24.8,0,26,0,26.6c0.1,0.5,0.5,1.2,0.5,1.7c0,0.3-0.1,0.9,0,1.1c0.5,0.9,2.5,1.6,3,2.5c0.2,0.3,0.2,0.9,0.3,1    c0.2,0.3,0.8,0.7,1,0.9c0.6,0.7,1.5,2.1,2,3.1c0.1,0.3,0.1,0.8,0.2,1c0.1,0.3,0.4,0.8,0.5,1c0.1,0.3,0.1,0.8,0.1,1    c0.1,0.4,0.4,1,0.4,1.3c-0.1,0.3-0.4,0.9-0.5,1.1C7.2,43.1,7,44.2,7,44.8c0.1,1.1,1,3.1,1.3,4.2c0.1,0.4,0.3,1.2,0.2,1.6    c-0.1,0.4-0.7,0.9-0.7,1.2c0,0.7,1,1.5,1.4,1.9c0.4,0.5,1.3,1.3,1.7,1.8c0.6,0.7,1.3,2.2,1.9,2.9c0.2,0.3,0.7,0.8,1,1    c0.3,0.2,0.9,0.6,1.1,0.8c0.2,0.2,0.6,0.6,0.8,0.9c0.2,0.3,0.4,0.8,0.5,1c0.1,0.2,0.3,0.5,0.4,0.7c0.3,0.6,1.1,1.4,1.4,1.9    c0.3,0.5,0.9,1.4,0.9,2c0,0.4-0.1,0.7,0.7,1.6c0.2,0.3,0.4,0.8,0.6,1c0.2,0.2,1,0.5,1.2,0.4c2.1-0.7,4.4-6,7.5-4.4    c1,0.5-1.4,0.8-3.6,3c-0.2,0.2-0.6,1-0.3,1.2c0.7,0.6,1.4-0.4,3.1,1.4c0.7,0.7,0.7,1.3,1.2,3.3c0.2,0.5,0.5,1.5,0.6,2    c0.1,0.5,0.3,2.2-1.2,1.3c-0.4-0.2-1-0.7-1.3-1c-0.2-0.2-0.7-0.8-0.9-1c-0.8-0.7-0.9-2-1-2.7c-0.1-0.3-0.2-0.8-0.4-1    c0-0.1-0.2-0.4-0.3-0.4c-0.2-0.1-0.9,0.1-1,0.3c-0.2,0.2-0.3,0.8-0.3,1c0,0.3,0.2,0.8,0.2,1c-0.1,0.6-0.5,1.7-0.3,2.3    c0.1,0.3,0.7,0.6,0.9,0.9c0.3,0.5,0.6,1.5,0.7,2.1c0.1,0.2,0,0.8,0,1c0,0.2-0.2,0.6-0.2,0.8c0,0.3,0.2,0.9,0.3,1    c0.1,0.2,0.5,0.7,0.7,0.9c0.5,0.8,1.7,2.1,2.5,2.7c0.3,0.3,1,0.6,1.3,0.7c0.6,0.1,1.6-0.3,2.1-0.3c3.2,0.2,1.9,3.4,1.1,4.1    c-0.7,0.6-2.3,0.9-2,2.7c0.1,0.6,0.5,1.6,0.6,2.2c0.1,0.6,0.1,1.7,0.3,2.2c0.1,0.3,0.6,0.8,0.8,1c0.6,0.4,1.8,1,2.3,1.6    c0.4,0.5,0.7,1.6,1,2c0.3,0.2,1,0.4,1.1,0.6c0.4,0.5,0.5,1.7,0.8,2.2c0.3,0.5,1.3,1.2,1.6,1.7c0.1,0.2,0.3,0.8,0.4,1    c0.1,0.2,0.5,0.7,0.7,0.9c0.4,0.3,1.3,0.5,1.6,0.8c0.4,0.4,0.8,1.5,1.1,1.9c0.6,0.6,2,1,2.5,1.5c0.2,0.2,0.5,0.8,0.5,1    c-0.1,0.3-0.6,0.7-0.7,1c-0.1,0.3,0,0.9,0.1,1.1c0.2,0.3,0.8,0.7,1,0.8c0.3,0.1,1,0,1.2,0.1c0.3,0.1,0.9,0.6,1,0.9    c0.2,0.3,0.2,0.8,0.2,1c0,0.4-0.5,1.2-0.5,1.7c0,0.6,0.6,1.5,0.6,2.1c-0.1,0.3-0.4,0.9-0.4,1.1s0.5,0.8,0.5,1    c0,0.3-0.4,0.9-0.4,1.2c0,0.3,0,1,0.2,1.1c0.2,0.1,0.6-0.1,0.8,0c0.3,0.2,0.7,0.8,1,1c0.3,0.2,0.8,0.7,1.1,0.8    c0.8,0.2,2.4-0.3,3.2-0.3c0.3,0,0.9,0.1,1.1,0.1c0.3,0,0.9-0.1,1.1-0.1c0.7,0.1,1.8,0.7,2.4,0.9c0.3,0,0.9,0.1,1.1,0.1    c0.6-0.1,1.6-0.5,2.2-0.4c0.5,0.1,2,0.9,2,0.9l1,0.8c0,0,1,0.4,1.2,0.7c0.4,0.4,0.5,1.6,0.9,2c0.5,0.6,2,1,2.8,1.3    c0.7,0.3,1.8,0.7,2.5,0.8c1,0.1,3.2-0.6,4.3-0.4c0.1,0,0.2,0.1,0.3,0.1c0.4,0.4,1,1.4,1.3,1.9c0.1,0.2,0.4,0.7,0.4,1    c0.1,0.2,0,0.8,0,1c0.1,0.2,0.2,0.8,0.4,1c0.3,0.2,1,0.6,1.3,0.4c0.2-0.1,0.1-0.8,0.3-1c0.2-0.2,0.8-0.1,1-0.1s1,0.1,1.2,0.3    c0.4,0.3,1,1,1.4,1.4c0.2,0.2,0.8,0.6,1,0.8c0.3,0.1,1,0.4,1.3,0.6c1.2,0.8,3.5,2.5,4.6,3.5c0.4,0.4,1.1,1.3,1.5,1.8    c0.4,0.5,1,1.6,1.3,2.2c0.3,0.6,0.7,1.5,0.8,2.1c0.2,0.6,0.4,1.6,0.4,2.2c0.1,0.5-0.3,0.6-0.2,1.1c0,0.3,0,1.2,0.3,1.1    c1.7-0.6,1.3,1,1.4,1.6c0.1,0.4,0.3,1.2,0.7,1.4c0.2,0.1,0.5,0,0.6,0c8.4-0.9,33-5.1,33-5.1s0.4-0.1,0.5-0.2    c0.1,0,0.4-0.2,0.5-0.2c0.1,0,0.4,0.2,0.5,0.2c0.3,0,0.9,0.1,1-0.1c0.2-0.2-0.1-0.8,0-1c0.2-0.3,0.9-0.7,1-1    c0.1-0.4-0.3-1.3-0.4-1.7c-0.1-0.3-0.3-0.8-0.5-1c-0.2-0.2-0.9-0.2-1.1-0.3c-0.3,0-1,0.1-1.2-0.1c-0.2-0.2-0.5-0.7-0.5-1    c-0.1-0.3,0.2-1,0.2-1.2s-0.1-0.8-0.2-1c-0.2-0.4-0.7-0.9-0.8-1.1c-0.1-0.3,0.1-0.9,0.2-1.1c0.2-0.3,1-1,1-1s1-1.9,1.2-2.7    c0.1-0.4,0-1.5,0-1.5s0.3-0.9,0.3-1.1c0.1-0.5-0.3-1.5-0.4-2c-0.1-0.5-0.2-1.5,0-2c0.1-0.3,0.7-0.6,0.9-0.9    c0.1-0.3,0.1-0.9,0.2-1.1c0.6-1,2.4-2,3-2.9c0.3-0.3,0.8-0.9,0.7-1.2C137.8,126.1,137,125.7,137,125.7z"/>
	</g>
</g>
</svg>